<svg xmlns="http://www.w3.org/2000/svg" xmlns:xlink="http://www.w3.org/1999/xlink" width="500" zoomAndPan="magnify" viewBox="0 0 375 374.999991" height="500" preserveAspectRatio="xMidYMid meet" version="1.2"><defs><clipPath id="c1a297e6a3"><path d="M 259.050781 141.574219 L 350.550781 141.574219 L 350.550781 233.074219 L 259.050781 233.074219 Z M 259.050781 141.574219 "/></clipPath></defs><g id="ec1a69b174"><g style="fill:#ffffff;fill-opacity:1;"><g transform="translate(24.110309, 218.24316)"><path style="stroke:none" d="M 2.484375 0 L 2.484375 -5.921875 L 4.90625 -6.140625 C 6.320312 -6.285156 7.03125 -6.96875 7.03125 -8.1875 L 7.03125 -42.21875 L 2.859375 -42.4375 L 2.859375 -48.65625 L 38.203125 -48.65625 L 38.203125 -36.515625 L 30.734375 -36 L 30.734375 -38.921875 C 30.734375 -39.753906 30.609375 -40.34375 30.359375 -40.6875 C 30.117188 -41.03125 29.535156 -41.203125 28.609375 -41.203125 L 15.953125 -41.203125 L 15.953125 -28.25 L 33.953125 -28.25 L 33.953125 -20.78125 L 15.953125 -20.78125 L 15.953125 -6.4375 L 22.46875 -6.21875 L 22.46875 0 Z M 2.484375 0 "/></g></g><g style="fill:#ffffff;fill-opacity:1;"><g transform="translate(63.84266, 218.24316)"><path style="stroke:none" d="M 15.65625 -36.8125 L 15.65625 -6.078125 L 19.828125 -5.859375 L 19.828125 0 L 2.421875 0 L 2.421875 -5.5625 L 4.828125 -5.78125 C 6.242188 -5.925781 6.953125 -6.707031 6.953125 -8.125 L 6.953125 -28.46875 C 6.953125 -29.289062 6.816406 -29.847656 6.546875 -30.140625 C 6.273438 -30.429688 5.800781 -30.578125 5.125 -30.578125 L 2.5625 -30.734375 L 2.5625 -36.8125 Z M 6 -43.46875 L 14.484375 -57.515625 L 17.921875 -55.90625 C 19.335938 -55.125 20.046875 -54.242188 20.046875 -53.265625 C 20.046875 -52.296875 19.4375 -51.25 18.21875 -50.125 L 8.859375 -41.046875 Z M 6 -43.46875 "/></g></g><g style="fill:#ffffff;fill-opacity:1;"><g transform="translate(85.501541, 218.24316)"><path style="stroke:none" d="M 34.96875 -0.078125 C 34.53125 5.335938 32.96875 9.3125 30.28125 11.84375 C 27.601562 14.382812 23.410156 15.65625 17.703125 15.65625 C 11.992188 15.65625 7.53125 14.851562 4.3125 13.25 L 4.3125 3.078125 L 11.265625 2.484375 L 11.265625 6 C 11.265625 7.3125 11.875 8.195312 13.09375 8.65625 C 14.3125 9.125 15.992188 9.359375 18.140625 9.359375 C 21.265625 9.359375 23.460938 8.421875 24.734375 6.546875 C 26.003906 4.671875 26.640625 2.023438 26.640625 -1.390625 L 26.640625 -5.421875 C 24.296875 -2.679688 21.050781 -1.3125 16.90625 -1.3125 C 14.363281 -1.3125 12.128906 -1.800781 10.203125 -2.78125 C 8.273438 -3.757812 6.773438 -5.078125 5.703125 -6.734375 C 3.609375 -10.046875 2.5625 -13.945312 2.5625 -18.4375 C 2.5625 -24.832031 4.289062 -29.675781 7.75 -32.96875 C 11.21875 -36.257812 15.828125 -37.90625 21.578125 -37.90625 C 26.359375 -37.90625 30.875 -37.003906 35.125 -35.203125 L 35.125 -8.046875 C 35.125 -3.898438 35.070312 -1.242188 34.96875 -0.078125 Z M 26.640625 -14.921875 L 26.640625 -30.65625 C 24.929688 -31.238281 22.976562 -31.53125 20.78125 -31.53125 C 17.800781 -31.53125 15.519531 -30.429688 13.9375 -28.234375 C 12.351562 -26.046875 11.5625 -23.070312 11.5625 -19.3125 C 11.5625 -11.601562 14.097656 -7.75 19.171875 -7.75 C 21.265625 -7.75 23.03125 -8.394531 24.46875 -9.6875 C 25.914062 -10.988281 26.640625 -12.734375 26.640625 -14.921875 Z M 26.640625 -14.921875 "/></g></g><g style="fill:#ffffff;fill-opacity:1;"><g transform="translate(125.307065, 218.24316)"><path style="stroke:none" d="M 35.265625 -35.34375 L 35.265625 -8.125 C 35.265625 -7.34375 35.398438 -6.804688 35.671875 -6.515625 C 35.941406 -6.222656 36.414062 -6.050781 37.09375 -6 L 39.4375 -5.859375 L 39.4375 0 L 27.8125 0 L 27.8125 -4.25 L 27.578125 -4.3125 C 25.140625 -0.800781 21.800781 0.953125 17.5625 0.953125 C 12.582031 0.953125 8.894531 -0.628906 6.5 -3.796875 C 4.113281 -6.972656 2.921875 -11.316406 2.921875 -16.828125 C 2.921875 -23.460938 4.53125 -28.632812 7.75 -32.34375 C 10.96875 -36.050781 15.800781 -37.90625 22.25 -37.90625 C 26.394531 -37.90625 30.734375 -37.050781 35.265625 -35.34375 Z M 26.78125 -11.640625 L 26.78125 -30.578125 C 25.414062 -31.210938 23.535156 -31.53125 21.140625 -31.53125 C 17.878906 -31.53125 15.515625 -30.210938 14.046875 -27.578125 C 12.585938 -24.953125 11.859375 -21.46875 11.859375 -17.125 C 11.859375 -9.21875 14.394531 -5.265625 19.46875 -5.265625 C 21.613281 -5.265625 23.367188 -5.910156 24.734375 -7.203125 C 26.097656 -8.492188 26.78125 -9.972656 26.78125 -11.640625 Z M 26.78125 -11.640625 "/></g></g><g style="fill:#ffffff;fill-opacity:1;"><g transform="translate(166.795535, 218.24316)"><path style="stroke:none" d="M 6.953125 -8.1875 L 6.953125 -28.46875 C 6.953125 -29.25 6.816406 -29.796875 6.546875 -30.109375 C 6.273438 -30.421875 5.800781 -30.601562 5.125 -30.65625 L 2.046875 -30.875 L 2.046875 -36.8125 L 14.421875 -36.8125 L 14.421875 -31.3125 C 15.296875 -33.21875 16.660156 -34.789062 18.515625 -36.03125 C 20.367188 -37.28125 22.5 -37.90625 24.90625 -37.90625 C 27.320312 -37.90625 29.628906 -37.367188 31.828125 -36.296875 L 31.828125 -25.390625 L 25.03125 -24.875 L 25.03125 -28.25 C 25.03125 -29.21875 24.785156 -29.828125 24.296875 -30.078125 C 23.753906 -30.316406 23.09375 -30.4375 22.3125 -30.4375 C 20.363281 -30.4375 18.765625 -29.738281 17.515625 -28.34375 C 16.273438 -26.957031 15.65625 -25.191406 15.65625 -23.046875 L 15.65625 -6.078125 L 22.03125 -5.78125 L 22.03125 0 L 2.421875 0 L 2.421875 -5.5625 L 4.828125 -5.78125 C 5.554688 -5.875 6.09375 -6.078125 6.4375 -6.390625 C 6.78125 -6.710938 6.953125 -7.3125 6.953125 -8.1875 Z M 6.953125 -8.1875 "/></g></g><g style="fill:#ffffff;fill-opacity:1;"><g transform="translate(199.137406, 218.24316)"><path style="stroke:none" d="M 19.25 -5.34375 C 24.5625 -5.34375 27.21875 -9.632812 27.21875 -18.21875 C 27.21875 -22.5625 26.617188 -25.851562 25.421875 -28.09375 C 24.234375 -30.34375 22.234375 -31.46875 19.421875 -31.46875 C 16.617188 -31.46875 14.554688 -30.394531 13.234375 -28.25 C 11.921875 -26.101562 11.265625 -23.175781 11.265625 -19.46875 C 11.265625 -12.582031 12.535156 -8.265625 15.078125 -6.515625 C 16.191406 -5.734375 17.582031 -5.34375 19.25 -5.34375 Z M 2.421875 -18.4375 C 2.421875 -22.050781 2.957031 -25.1875 4.03125 -27.84375 C 5.101562 -30.5 6.539062 -32.535156 8.34375 -33.953125 C 11.800781 -36.585938 15.628906 -37.90625 19.828125 -37.90625 C 22.753906 -37.90625 25.226562 -37.425781 27.25 -36.46875 C 29.28125 -35.519531 30.867188 -34.421875 32.015625 -33.171875 C 33.160156 -31.929688 34.132812 -30.128906 34.9375 -27.765625 C 35.738281 -25.398438 36.140625 -22.609375 36.140625 -19.390625 C 36.140625 -12.660156 34.503906 -7.5625 31.234375 -4.09375 C 27.972656 -0.632812 23.789062 1.09375 18.6875 1.09375 C 13.59375 1.09375 9.609375 -0.550781 6.734375 -3.84375 C 3.859375 -7.132812 2.421875 -12 2.421875 -18.4375 Z M 2.421875 -18.4375 "/></g></g><g style="fill:#ffffff;fill-opacity:1;"><g transform="translate(236.308615, 218.24316)"><path style="stroke:none" d="M 8.265625 1.09375 C 6.554688 1.09375 5.238281 0.617188 4.3125 -0.328125 C 3.382812 -1.273438 2.921875 -2.515625 2.921875 -4.046875 C 2.921875 -5.585938 3.394531 -6.859375 4.34375 -7.859375 C 5.300781 -8.859375 6.597656 -9.359375 8.234375 -9.359375 C 9.867188 -9.359375 11.171875 -8.882812 12.140625 -7.9375 C 13.117188 -6.988281 13.609375 -5.742188 13.609375 -4.203125 C 13.609375 -2.671875 13.144531 -1.40625 12.21875 -0.40625 C 11.289062 0.59375 9.972656 1.09375 8.265625 1.09375 Z M 8.265625 1.09375 "/></g></g><g clip-rule="nonzero" clip-path="url(#c1a297e6a3)"><path style=" stroke:none;fill-rule:nonzero;fill:#ffffff;fill-opacity:1;" d="M 349.449219 144.613281 C 348.453125 143.597656 347.101562 142.957031 345.789062 142.535156 C 344.230469 142.070312 342.644531 141.785156 341.023438 141.679688 C 337.476562 141.398438 333.050781 141.679688 328.144531 142.679688 C 318.324219 144.691406 306.3125 149.667969 295.164062 159.304688 C 284.019531 168.9375 277.046875 180.601562 273.675781 190.316406 C 271.992188 195.160156 271.15625 199.660156 271.222656 203.285156 C 271.25 205.09375 271.507812 206.832031 272.101562 208.320312 C 272.195312 208.550781 272.304688 208.785156 272.421875 209.015625 C 267.921875 215.378906 263.617188 221.867188 259.507812 228.488281 C 259.300781 228.824219 259.164062 229.183594 259.097656 229.570312 C 259.03125 229.957031 259.042969 230.34375 259.125 230.730469 C 259.207031 231.113281 259.363281 231.46875 259.582031 231.792969 C 259.804688 232.117188 260.078125 232.386719 260.40625 232.605469 C 260.734375 232.816406 261.089844 232.957031 261.472656 233.027344 C 261.855469 233.09375 262.234375 233.085938 262.617188 233 C 262.996094 232.914062 263.34375 232.757812 263.660156 232.53125 C 263.976562 232.304688 264.234375 232.023438 264.4375 231.691406 C 268.375 225.359375 272.488281 219.144531 276.78125 213.046875 C 278.410156 213.855469 280.300781 214.164062 282.257812 214.089844 C 285.191406 213.972656 288.539062 213.011719 292.113281 211.285156 C 299.261719 207.828125 307.804688 201.066406 316.71875 190.457031 L 325.398438 181.59375 C 325.675781 181.3125 325.886719 180.988281 326.035156 180.621094 C 326.183594 180.257812 326.257812 179.875 326.257812 179.480469 C 326.257812 179.085938 326.183594 178.707031 326.035156 178.339844 C 325.886719 177.976562 325.675781 177.652344 325.398438 177.367188 L 321.230469 173.113281 L 328.730469 174.308594 C 329.195312 174.382812 329.652344 174.347656 330.101562 174.195312 C 330.550781 174.042969 330.9375 173.796875 331.261719 173.453125 L 335.054688 169.539062 C 338.84375 165.652344 342.441406 161.960938 345.136719 158.71875 C 346.929688 156.558594 348.480469 154.417969 349.449219 152.390625 C 350.378906 150.417969 351.039062 147.96875 350.089844 145.59375 C 349.941406 145.222656 349.730469 144.894531 349.449219 144.613281 M 280.398438 208.027344 C 289.847656 195.183594 300.453125 182.835938 312.289062 172.421875 L 319.207031 179.480469 L 312.511719 186.320312 L 312.355469 186.488281 C 303.777344 196.722656 295.824219 202.886719 289.613281 205.894531 C 286.5 207.398438 283.949219 208.054688 282.039062 208.125 C 281.488281 208.152344 280.941406 208.117188 280.398438 208.019531 Z M 319.109375 166.738281 C 326.601562 160.859375 334.550781 155.792969 342.96875 151.867188 C 342.253906 152.902344 341.488281 153.898438 340.679688 154.859375 C 338.152344 157.90625 334.800781 161.34375 331.066406 165.175781 L 328.152344 168.171875 Z M 338.246094 147.539062 C 313.917969 159.570312 293.621094 180.460938 277.058594 202.640625 C 277.101562 199.984375 277.75 196.429688 279.175781 192.3125 C 282.222656 183.535156 288.613281 172.78125 298.933594 163.855469 C 309.269531 154.929688 320.355469 150.359375 329.300781 148.527344 C 332.25 147.90625 335.230469 147.574219 338.246094 147.539062 "/></g></g></svg>