<svg xmlns="http://www.w3.org/2000/svg" xmlns:xlink="http://www.w3.org/1999/xlink" width="500" zoomAndPan="magnify" viewBox="0 0 375 374.999991" height="500" preserveAspectRatio="xMidYMid meet" version="1.2"><defs><clipPath id="33b19c137d"><path d="M 117.363281 155.070312 L 257.613281 155.070312 L 257.613281 260 L 117.363281 260 Z M 117.363281 155.070312 "/></clipPath><clipPath id="d9c556d7f8"><path d="M 173 85.984375 L 202 85.984375 L 202 161.734375 L 173 161.734375 Z M 173 85.984375 "/></clipPath></defs><g id="6e9214c3d9"><path style=" stroke:none;fill-rule:nonzero;fill:#2a2a2a;fill-opacity:1;" d="M 169.957031 237.949219 C 169.957031 237.660156 169.984375 237.375 170.042969 237.09375 C 170.097656 236.808594 170.179688 236.535156 170.292969 236.269531 C 170.402344 236.003906 170.535156 235.75 170.695312 235.511719 C 170.855469 235.273438 171.039062 235.050781 171.242188 234.847656 C 171.445312 234.644531 171.667969 234.464844 171.90625 234.304688 C 172.144531 234.144531 172.398438 234.007812 172.664062 233.898438 C 172.929688 233.789062 173.203125 233.707031 173.484375 233.648438 C 173.769531 233.59375 174.054688 233.566406 174.339844 233.566406 L 200.636719 233.566406 C 200.925781 233.566406 201.210938 233.59375 201.492188 233.648438 C 201.773438 233.707031 202.050781 233.789062 202.316406 233.898438 C 202.582031 234.007812 202.832031 234.144531 203.074219 234.304688 C 203.3125 234.464844 203.53125 234.644531 203.738281 234.847656 C 203.941406 235.050781 204.121094 235.273438 204.28125 235.511719 C 204.441406 235.75 204.578125 236.003906 204.6875 236.269531 C 204.796875 236.535156 204.878906 236.808594 204.9375 237.09375 C 204.992188 237.375 205.019531 237.660156 205.019531 237.949219 C 205.019531 238.234375 204.992188 238.519531 204.9375 238.800781 C 204.878906 239.085938 204.796875 239.359375 204.6875 239.625 C 204.578125 239.890625 204.441406 240.144531 204.28125 240.382812 C 204.121094 240.621094 203.941406 240.84375 203.738281 241.046875 C 203.53125 241.25 203.3125 241.433594 203.074219 241.589844 C 202.832031 241.75 202.582031 241.886719 202.316406 241.996094 C 202.050781 242.105469 201.773438 242.191406 201.492188 242.246094 C 201.210938 242.300781 200.925781 242.332031 200.636719 242.332031 L 174.339844 242.332031 C 174.054688 242.332031 173.769531 242.300781 173.484375 242.246094 C 173.203125 242.191406 172.929688 242.105469 172.664062 241.996094 C 172.398438 241.886719 172.144531 241.75 171.90625 241.589844 C 171.667969 241.433594 171.445312 241.25 171.242188 241.046875 C 171.039062 240.84375 170.855469 240.621094 170.695312 240.382812 C 170.535156 240.144531 170.402344 239.890625 170.292969 239.625 C 170.179688 239.359375 170.097656 239.085938 170.042969 238.800781 C 169.984375 238.519531 169.957031 238.234375 169.957031 237.949219 M 143.660156 199.046875 C 143.660156 187.632812 154.488281 178.910156 165.839844 179.972656 C 180.273438 181.316406 194.707031 181.316406 209.140625 179.972656 C 220.492188 178.910156 231.316406 187.632812 231.316406 199.046875 L 231.316406 209.1875 C 231.328125 209.667969 231.296875 210.148438 231.21875 210.625 C 231.144531 211.097656 231.03125 211.5625 230.875 212.019531 C 230.714844 212.476562 230.519531 212.914062 230.285156 213.332031 C 230.050781 213.753906 229.78125 214.148438 229.476562 214.523438 C 229.171875 214.894531 228.835938 215.238281 228.46875 215.550781 C 228.105469 215.863281 227.714844 216.144531 227.300781 216.386719 C 226.882812 216.632812 226.449219 216.835938 226 217.003906 C 225.546875 217.171875 225.085938 217.296875 224.613281 217.382812 C 217.203125 218.671875 204.101562 220.417969 187.488281 220.417969 C 170.878906 220.417969 157.773438 218.664062 150.367188 217.382812 C 149.894531 217.296875 149.429688 217.171875 148.980469 217.003906 C 148.527344 216.835938 148.09375 216.632812 147.679688 216.386719 C 147.265625 216.144531 146.875 215.863281 146.507812 215.550781 C 146.140625 215.238281 145.808594 214.894531 145.5 214.523438 C 145.195312 214.148438 144.925781 213.753906 144.691406 213.332031 C 144.457031 212.914062 144.261719 212.476562 144.105469 212.019531 C 143.949219 211.5625 143.832031 211.097656 143.757812 210.625 C 143.683594 210.148438 143.652344 209.667969 143.660156 209.1875 Z M 183.472656 191.796875 C 182.738281 191.671875 182.105469 191.871094 181.570312 192.394531 L 173.507812 200.28125 C 168.019531 199.953125 162.554688 199.417969 157.105469 198.675781 C 156.824219 198.648438 156.546875 198.675781 156.277344 198.753906 C 156.003906 198.835938 155.757812 198.960938 155.535156 199.136719 C 155.3125 199.3125 155.128906 199.523438 154.988281 199.769531 C 154.847656 200.015625 154.757812 200.277344 154.71875 200.558594 C 154.679688 200.839844 154.695312 201.117188 154.765625 201.394531 C 154.835938 201.667969 154.953125 201.921875 155.121094 202.148438 C 155.289062 202.378906 155.492188 202.566406 155.730469 202.71875 C 155.972656 202.867188 156.230469 202.96875 156.511719 203.015625 C 161.332031 203.683594 167.3125 204.324219 174.21875 204.707031 C 174.863281 204.746094 175.414062 204.539062 175.875 204.085938 L 182.484375 197.632812 L 189.910156 212.625 C 189.988281 212.78125 190.082031 212.925781 190.195312 213.0625 C 190.308594 213.195312 190.4375 213.3125 190.578125 213.417969 C 190.71875 213.519531 190.871094 213.605469 191.035156 213.671875 C 191.195312 213.742188 191.363281 213.789062 191.539062 213.8125 C 191.710938 213.839844 191.886719 213.847656 192.0625 213.832031 C 192.234375 213.816406 192.40625 213.78125 192.574219 213.722656 C 192.738281 213.667969 192.894531 213.59375 193.042969 213.5 C 193.191406 213.402344 193.328125 213.292969 193.449219 213.167969 L 201.621094 204.664062 C 207.257812 204.332031 212.871094 203.78125 218.464844 203.015625 C 218.746094 202.96875 219.007812 202.867188 219.246094 202.71875 C 219.488281 202.566406 219.691406 202.378906 219.859375 202.148438 C 220.023438 201.921875 220.144531 201.667969 220.210938 201.394531 C 220.28125 201.117188 220.296875 200.839844 220.257812 200.558594 C 220.21875 200.277344 220.128906 200.015625 219.988281 199.769531 C 219.847656 199.523438 219.667969 199.3125 219.445312 199.136719 C 219.222656 198.960938 218.972656 198.835938 218.703125 198.753906 C 218.429688 198.675781 218.152344 198.648438 217.871094 198.675781 C 213.15625 199.328125 207.289062 199.949219 200.515625 200.335938 C 199.941406 200.367188 199.457031 200.589844 199.058594 201 L 192.449219 207.882812 L 185.070312 192.980469 C 184.738281 192.316406 184.207031 191.921875 183.472656 191.796875 "/><g clip-rule="nonzero" clip-path="url(#33b19c137d)"><path style=" stroke:none;fill-rule:nonzero;fill:#2a2a2a;fill-opacity:1;" d="M 191.871094 144.734375 C 192.425781 144.414062 192.9375 144.039062 193.410156 143.605469 C 193.882812 143.171875 194.300781 142.695312 194.667969 142.171875 C 195.035156 141.644531 195.34375 141.089844 195.585938 140.496094 C 195.832031 139.90625 196.011719 139.296875 196.121094 138.664062 C 196.234375 138.035156 196.273438 137.398438 196.246094 136.761719 C 196.21875 136.121094 196.121094 135.492188 195.957031 134.875 C 195.789062 134.253906 195.558594 133.664062 195.265625 133.09375 C 194.96875 132.527344 194.617188 132 194.203125 131.507812 C 193.792969 131.019531 193.332031 130.578125 192.824219 130.1875 C 192.316406 129.800781 191.773438 129.46875 191.195312 129.199219 C 190.613281 128.929688 190.011719 128.722656 189.386719 128.585938 C 188.761719 128.445312 188.128906 128.378906 187.488281 128.378906 C 186.847656 128.378906 186.214844 128.445312 185.59375 128.585938 C 184.96875 128.722656 184.363281 128.929688 183.785156 129.199219 C 183.203125 129.46875 182.660156 129.800781 182.152344 130.1875 C 181.644531 130.578125 181.1875 131.019531 180.773438 131.507812 C 180.363281 132 180.007812 132.527344 179.714844 133.09375 C 179.417969 133.664062 179.1875 134.253906 179.023438 134.875 C 178.855469 135.492188 178.757812 136.121094 178.730469 136.761719 C 178.703125 137.398438 178.746094 138.035156 178.855469 138.664062 C 178.96875 139.296875 179.144531 139.90625 179.390625 140.496094 C 179.636719 141.089844 179.941406 141.644531 180.308594 142.171875 C 180.675781 142.695312 181.09375 143.171875 181.566406 143.605469 C 182.039062 144.039062 182.550781 144.414062 183.105469 144.734375 L 183.105469 154.675781 L 165.574219 154.675781 C 164.28125 154.675781 162.996094 154.738281 161.707031 154.863281 C 160.421875 154.992188 159.148438 155.179688 157.878906 155.433594 C 156.613281 155.683594 155.359375 155.996094 154.125 156.371094 C 152.886719 156.746094 151.671875 157.183594 150.480469 157.675781 C 149.285156 158.171875 148.121094 158.722656 146.980469 159.332031 C 145.839844 159.941406 144.734375 160.605469 143.660156 161.320312 C 142.585938 162.039062 141.550781 162.808594 140.550781 163.628906 C 139.550781 164.449219 138.597656 165.3125 137.683594 166.226562 C 136.769531 167.140625 135.902344 168.097656 135.082031 169.09375 C 134.265625 170.09375 133.496094 171.128906 132.777344 172.203125 C 132.058594 173.277344 131.394531 174.386719 130.789062 175.523438 C 130.179688 176.664062 129.625 177.832031 129.132812 179.023438 C 128.636719 180.21875 128.203125 181.433594 127.828125 182.667969 C 127.453125 183.90625 127.140625 185.15625 126.886719 186.425781 C 126.636719 187.691406 126.445312 188.96875 126.320312 190.253906 C 126.191406 191.539062 126.128906 192.828125 126.128906 194.121094 L 126.128906 198.503906 C 125.554688 198.503906 124.984375 198.558594 124.417969 198.671875 C 123.855469 198.78125 123.308594 198.949219 122.773438 199.167969 C 122.242188 199.390625 121.738281 199.660156 121.257812 199.980469 C 120.78125 200.300781 120.339844 200.664062 119.929688 201.070312 C 119.523438 201.476562 119.160156 201.917969 118.839844 202.398438 C 118.523438 202.875 118.25 203.382812 118.03125 203.914062 C 117.8125 204.445312 117.644531 204.992188 117.53125 205.558594 C 117.421875 206.121094 117.363281 206.691406 117.363281 207.269531 L 117.363281 224.800781 C 117.363281 225.375 117.421875 225.945312 117.53125 226.507812 C 117.644531 227.074219 117.8125 227.621094 118.03125 228.152344 C 118.25 228.683594 118.523438 229.191406 118.839844 229.667969 C 119.160156 230.148438 119.523438 230.589844 119.929688 230.996094 C 120.339844 231.40625 120.78125 231.769531 121.257812 232.085938 C 121.738281 232.40625 122.242188 232.675781 122.773438 232.898438 C 123.308594 233.117188 123.855469 233.285156 124.417969 233.394531 C 124.984375 233.507812 125.554688 233.566406 126.128906 233.566406 L 126.128906 242.332031 C 126.128906 242.90625 126.15625 243.476562 126.214844 244.046875 C 126.269531 244.621094 126.355469 245.1875 126.464844 245.75 C 126.578125 246.3125 126.71875 246.871094 126.882812 247.417969 C 127.050781 247.96875 127.246094 248.507812 127.464844 249.039062 C 127.683594 249.570312 127.929688 250.089844 128.199219 250.59375 C 128.46875 251.101562 128.765625 251.59375 129.085938 252.070312 C 129.402344 252.546875 129.746094 253.007812 130.109375 253.453125 C 130.472656 253.894531 130.859375 254.320312 131.265625 254.726562 C 131.671875 255.132812 132.09375 255.519531 132.539062 255.882812 C 132.984375 256.246094 133.445312 256.589844 133.921875 256.90625 C 134.398438 257.226562 134.890625 257.519531 135.398438 257.792969 C 135.902344 258.0625 136.421875 258.308594 136.953125 258.527344 C 137.484375 258.746094 138.023438 258.941406 138.570312 259.105469 C 139.121094 259.273438 139.675781 259.414062 140.242188 259.523438 C 140.804688 259.636719 141.371094 259.722656 141.941406 259.777344 C 142.515625 259.832031 143.085938 259.863281 143.660156 259.863281 L 231.316406 259.863281 C 231.890625 259.863281 232.464844 259.832031 233.035156 259.777344 C 233.605469 259.722656 234.175781 259.636719 234.738281 259.523438 C 235.300781 259.414062 235.855469 259.273438 236.40625 259.105469 C 236.957031 258.941406 237.496094 258.746094 238.027344 258.527344 C 238.554688 258.308594 239.074219 258.0625 239.582031 257.792969 C 240.085938 257.519531 240.578125 257.226562 241.058594 256.90625 C 241.535156 256.589844 241.996094 256.246094 242.4375 255.882812 C 242.882812 255.519531 243.308594 255.132812 243.714844 254.726562 C 244.121094 254.320312 244.503906 253.894531 244.867188 253.453125 C 245.234375 253.007812 245.574219 252.546875 245.894531 252.070312 C 246.210938 251.59375 246.507812 251.101562 246.777344 250.59375 C 247.050781 250.089844 247.292969 249.570312 247.515625 249.039062 C 247.734375 248.507812 247.925781 247.96875 248.09375 247.417969 C 248.261719 246.871094 248.398438 246.3125 248.511719 245.75 C 248.625 245.1875 248.707031 244.621094 248.765625 244.046875 C 248.820312 243.476562 248.847656 242.90625 248.847656 242.332031 L 248.847656 233.566406 C 249.425781 233.566406 249.992188 233.507812 250.558594 233.394531 C 251.121094 233.285156 251.671875 233.117188 252.203125 232.898438 C 252.734375 232.675781 253.238281 232.40625 253.71875 232.085938 C 254.195312 231.769531 254.640625 231.40625 255.046875 230.996094 C 255.453125 230.589844 255.816406 230.148438 256.136719 229.667969 C 256.457031 229.191406 256.726562 228.683594 256.945312 228.152344 C 257.167969 227.621094 257.332031 227.074219 257.445312 226.507812 C 257.558594 225.945312 257.613281 225.375 257.613281 224.800781 L 257.613281 207.269531 C 257.613281 206.691406 257.558594 206.121094 257.445312 205.558594 C 257.332031 204.992188 257.167969 204.445312 256.945312 203.914062 C 256.726562 203.382812 256.457031 202.875 256.136719 202.398438 C 255.816406 201.917969 255.453125 201.476562 255.046875 201.070312 C 254.640625 200.664062 254.195312 200.300781 253.71875 199.980469 C 253.238281 199.660156 252.734375 199.390625 252.203125 199.167969 C 251.671875 198.949219 251.121094 198.78125 250.558594 198.671875 C 249.992188 198.558594 249.425781 198.503906 248.847656 198.503906 L 248.847656 194.121094 C 248.847656 192.828125 248.785156 191.539062 248.660156 190.253906 C 248.53125 188.96875 248.34375 187.691406 248.089844 186.425781 C 247.839844 185.15625 247.523438 183.90625 247.148438 182.667969 C 246.773438 181.433594 246.339844 180.21875 245.847656 179.023438 C 245.351562 177.832031 244.800781 176.664062 244.191406 175.523438 C 243.582031 174.386719 242.917969 173.277344 242.199219 172.203125 C 241.484375 171.128906 240.714844 170.09375 239.894531 169.09375 C 239.074219 168.097656 238.207031 167.140625 237.296875 166.226562 C 236.382812 165.3125 235.425781 164.449219 234.425781 163.628906 C 233.429688 162.808594 232.390625 162.039062 231.316406 161.320312 C 230.242188 160.605469 229.136719 159.941406 227.996094 159.332031 C 226.859375 158.722656 225.691406 158.171875 224.5 157.675781 C 223.304688 157.183594 222.089844 156.746094 220.851562 156.371094 C 219.617188 155.996094 218.367188 155.683594 217.097656 155.433594 C 215.832031 155.179688 214.554688 154.992188 213.269531 154.863281 C 211.984375 154.738281 210.695312 154.675781 209.402344 154.675781 L 191.871094 154.675781 Z M 240.082031 194.121094 L 240.082031 242.332031 C 240.082031 242.90625 240.027344 243.476562 239.914062 244.039062 C 239.800781 244.605469 239.636719 245.152344 239.414062 245.683594 C 239.195312 246.214844 238.925781 246.722656 238.605469 247.199219 C 238.285156 247.679688 237.921875 248.121094 237.515625 248.527344 C 237.109375 248.9375 236.664062 249.300781 236.1875 249.617188 C 235.707031 249.9375 235.203125 250.207031 234.671875 250.429688 C 234.140625 250.648438 233.589844 250.816406 233.027344 250.925781 C 232.460938 251.039062 231.894531 251.097656 231.316406 251.097656 L 143.660156 251.097656 C 143.085938 251.097656 142.515625 251.039062 141.949219 250.925781 C 141.386719 250.816406 140.839844 250.648438 140.304688 250.429688 C 139.773438 250.207031 139.269531 249.9375 138.789062 249.617188 C 138.3125 249.300781 137.871094 248.9375 137.460938 248.527344 C 137.054688 248.121094 136.691406 247.679688 136.371094 247.199219 C 136.054688 246.722656 135.78125 246.214844 135.5625 245.683594 C 135.34375 245.152344 135.175781 244.605469 135.0625 244.039062 C 134.953125 243.476562 134.894531 242.90625 134.894531 242.332031 L 134.894531 194.121094 C 134.894531 193.113281 134.945312 192.113281 135.042969 191.113281 C 135.140625 190.113281 135.289062 189.121094 135.484375 188.132812 C 135.679688 187.148438 135.925781 186.175781 136.214844 185.214844 C 136.507812 184.253906 136.847656 183.308594 137.230469 182.378906 C 137.613281 181.449219 138.042969 180.542969 138.519531 179.65625 C 138.992188 178.769531 139.507812 177.910156 140.066406 177.074219 C 140.625 176.238281 141.222656 175.433594 141.859375 174.65625 C 142.496094 173.878906 143.171875 173.136719 143.882812 172.425781 C 144.589844 171.714844 145.335938 171.042969 146.113281 170.402344 C 146.890625 169.765625 147.695312 169.167969 148.53125 168.609375 C 149.367188 168.050781 150.226562 167.535156 151.113281 167.0625 C 152 166.589844 152.90625 166.160156 153.835938 165.773438 C 154.761719 165.390625 155.707031 165.050781 156.667969 164.761719 C 157.628906 164.46875 158.605469 164.226562 159.589844 164.027344 C 160.574219 163.832031 161.566406 163.6875 162.566406 163.585938 C 163.566406 163.488281 164.570312 163.441406 165.574219 163.441406 L 209.402344 163.441406 C 210.40625 163.441406 211.410156 163.488281 212.410156 163.585938 C 213.410156 163.6875 214.402344 163.832031 215.386719 164.027344 C 216.375 164.226562 217.347656 164.46875 218.308594 164.761719 C 219.269531 165.050781 220.214844 165.390625 221.144531 165.773438 C 222.070312 166.160156 222.980469 166.589844 223.867188 167.0625 C 224.75 167.535156 225.613281 168.050781 226.449219 168.609375 C 227.285156 169.167969 228.089844 169.765625 228.867188 170.402344 C 229.644531 171.042969 230.386719 171.714844 231.097656 172.425781 C 231.808594 173.136719 232.480469 173.878906 233.117188 174.65625 C 233.757812 175.433594 234.355469 176.238281 234.914062 177.074219 C 235.46875 177.910156 235.988281 178.769531 236.460938 179.65625 C 236.933594 180.542969 237.363281 181.449219 237.746094 182.378906 C 238.132812 183.308594 238.46875 184.253906 238.761719 185.214844 C 239.054688 186.175781 239.296875 187.148438 239.492188 188.132812 C 239.6875 189.121094 239.835938 190.113281 239.933594 191.113281 C 240.035156 192.113281 240.082031 193.113281 240.082031 194.121094 "/></g><g clip-rule="nonzero" clip-path="url(#d9c556d7f8)"><path style=" stroke:none;fill-rule:nonzero;fill:#2a2a2a;fill-opacity:1;" d="M 185.015625 91.019531 L 185.015625 136.261719 L 177.914062 127.738281 L 177.914062 100.1875 C 177.914062 99.667969 177.957031 99.148438 178.042969 98.636719 C 178.125 98.121094 178.253906 97.617188 178.421875 97.125 C 178.589844 96.632812 178.800781 96.15625 179.046875 95.695312 C 179.292969 95.238281 179.578125 94.800781 179.894531 94.390625 C 180.214844 93.976562 180.566406 93.59375 180.949219 93.238281 C 181.332031 92.886719 181.738281 92.566406 182.175781 92.277344 C 182.609375 91.992188 183.066406 91.742188 183.542969 91.53125 C 184.019531 91.320312 184.511719 91.148438 185.015625 91.019531 M 187.382812 85.984375 C 186.449219 85.984375 185.527344 86.078125 184.613281 86.257812 C 183.695312 86.441406 182.808594 86.710938 181.945312 87.066406 C 181.085938 87.425781 180.265625 87.863281 179.492188 88.378906 C 178.714844 88.898438 178 89.488281 177.339844 90.144531 C 176.679688 90.804688 176.089844 91.523438 175.574219 92.296875 C 175.054688 93.074219 174.617188 93.890625 174.261719 94.753906 C 173.902344 95.617188 173.632812 96.503906 173.453125 97.417969 C 173.269531 98.332031 173.179688 99.257812 173.179688 100.1875 L 173.179688 128.59375 C 173.179688 129.167969 173.363281 129.671875 173.726562 130.109375 L 185.015625 143.65625 L 185.015625 159.367188 C 185.015625 159.683594 185.074219 159.984375 185.195312 160.273438 C 185.316406 160.566406 185.488281 160.820312 185.707031 161.042969 C 185.929688 161.265625 186.1875 161.4375 186.476562 161.554688 C 186.765625 161.675781 187.070312 161.734375 187.382812 161.734375 C 187.695312 161.734375 188 161.675781 188.289062 161.554688 C 188.578125 161.4375 188.835938 161.265625 189.054688 161.042969 C 189.277344 160.820312 189.449219 160.566406 189.570312 160.273438 C 189.6875 159.984375 189.75 159.683594 189.75 159.367188 L 189.75 143.65625 L 201.035156 130.113281 C 201.402344 129.675781 201.585938 129.167969 201.585938 128.59375 L 201.585938 100.1875 C 201.585938 99.257812 201.496094 98.332031 201.3125 97.417969 C 201.128906 96.503906 200.859375 95.617188 200.503906 94.753906 C 200.148438 93.890625 199.710938 93.074219 199.191406 92.296875 C 198.671875 91.523438 198.085938 90.804688 197.425781 90.144531 C 196.765625 89.488281 196.046875 88.898438 195.273438 88.378906 C 194.496094 87.863281 193.679688 87.425781 192.816406 87.066406 C 191.957031 86.710938 191.066406 86.441406 190.152344 86.257812 C 189.238281 86.078125 188.316406 85.984375 187.382812 85.984375 M 189.75 91.019531 C 190.253906 91.148438 190.746094 91.320312 191.222656 91.53125 C 191.699219 91.742188 192.152344 91.992188 192.589844 92.277344 C 193.023438 92.566406 193.433594 92.886719 193.816406 93.238281 C 194.199219 93.59375 194.550781 93.976562 194.867188 94.390625 C 195.1875 94.800781 195.472656 95.238281 195.71875 95.695312 C 195.964844 96.15625 196.171875 96.632812 196.34375 97.125 C 196.511719 97.617188 196.636719 98.121094 196.722656 98.636719 C 196.808594 99.148438 196.851562 99.667969 196.851562 100.1875 L 196.851562 101.578125 L 189.75 108.679688 Z M 196.851562 108.269531 L 196.851562 127.742188 L 189.75 136.265625 L 189.75 115.371094 Z M 196.851562 108.269531 "/></g></g></svg>